<!-- Generated by scripts/nameplates.ts. Noto Sans SC Black (SIL OFL 1.1). -->
<svg xmlns="http://www.w3.org/2000/svg" viewBox="0 -122.0 2316.3 244.0"><path id="accent" d="M12 3.4L12-26.0L25.0-26.0L25.0-44.7L56.3-44.7L56.3-26.0L78.9-26.0L78.9-44.7L109.7-44.7L109.7-26.0L121.1-26.0L121.1 3.4L109.7 3.4L109.7 88.5Q126.1 78.7 135.1 67.8Q144.1 56.8 148.0 46.2Q151.9 35.6 152.7 26.6Q153.5 17.6 153.5 11.4L153.5 11.4L153.5 5.5L186.4 5.5L186.4 12.3Q186.4 20.3 185.0 31.7L185.0 31.7Q184.5 34.2 184.1 36.7L184.1 36.7Q190.0 50.7 200.3 63.0L200.3 63.0Q211.5 76.5 226.5 84.0L226.5 84.0Q222.9 86.7 218.5 91.2Q214.2 95.6 210.4 100.3Q206.7 105.0 204.2 108.9L204.2 108.9Q186.8 98.4 174.7 80.3L174.7 80.3Q172.2 76.7 169.9 73.0L169.9 73.0Q166.7 78.0 163.1 83.1L163.1 83.1Q152.8 96.5 135.2 108.6L135.2 108.6Q130.9 103.8 123.6 98.0Q116.3 92.2 109.7 88.5L109.7 88.5L109.7 103.2L78.9 103.2L78.9 91.5L56.3 91.5L56.3 108.4L25.0 108.4L25.0 3.4L12 3.4ZM23.4-51.1L23.4-101.1L57.0-101.1L57.0-78.5L100.8-78.5L100.8-108.2L135.0-108.2L135.0-78.5L180.7-78.5L180.7-101.1L215.8-101.1L215.8-51.1L23.4-51.1ZM133.6-50.4L133.6-50.4L163.8-45.4Q162.9-38.8 161.7-32.4L161.7-32.4L201.0-32.4L205.3-33.3L225.8-29.0Q223.6-13.0 220.6 3.4Q217.6 19.9 214.4 31.5L214.4 31.5L190.2 25.6Q191.4 18.7 192.7 9.4L192.7 9.4Q193.7 2.7 194.3-4.6L194.3-4.6L155.8-4.6Q155.3-2.7 154.9-1.1L154.9-1.1Q148.9 20.3 140.3 34.7L140.3 34.7Q137.5 32.4 132.6 29.2Q127.7 26.0 122.8 23.0Q117.9 20.1 114.2 18.3L114.2 18.3Q122.2 6.2 126.9-12.4Q131.6-31.0 133.6-50.4ZM56.3 45.9L56.3 62.3L78.9 62.3L78.9 45.9L56.3 45.9ZM78.9 19.6L78.9 3.4L56.3 3.4L56.3 19.6L78.9 19.6Z M297.9-80.1L297.9-80.1L318.5-108.9Q334.2-97.2 345.9-84.6Q357.5-71.9 366.6-58.4Q375.8-45.0 383.6-31.3Q391.5-17.6 399.4-4.1Q407.3 9.4 416.3 22.1Q425.3 34.9 436.9 46.7Q448.6 58.4 464.1 68.5L464.1 68.5Q461.6 73.0 458.1 80.1Q454.7 87.2 451.9 94.4Q449.0 101.6 448.1 106.8L448.1 106.8Q431.7 97.7 419.0 85.4Q406.3 73.0 396.3 58.7Q386.3 44.3 377.7 29.0Q369.1 13.7 360.9-1.8L360.9-1.8Q360.5-2.3 360.0-3.0L360.0-3.0Q355.9 8.0 351.3 18.3L351.3 18.3Q337.9 47.0 319.1 68.9Q300.2 90.8 275.6 105.4L275.6 105.4Q272.6 101.8 267.1 96.6Q261.7 91.5 255.6 86.4Q249.6 81.2 245.2 78.3L245.2 78.3Q282.0 60.5 303.9 27.2L303.9 27.2Q324.0-3.9 333.3-45.9L333.3-45.9Q328.5-52.3 323.3-58.4L323.3-58.4Q312.1-70.7 297.9-80.1Z M635.7-91.1L635.7-91.1L657.6-109.1Q662.4-105.9 667.9-101.7Q673.3-97.4 678.2-93.1Q683.2-88.8 686.1-85.1L686.1-85.1L670.1-71.4L690.0-71.4L690.0-39.0L630.2-39.0Q631.4-21.9 633.4-6.2L633.4-6.2Q636.1 17.1 640.3 35.1Q644.4 53.2 649.4 63.4Q654.4 73.7 659.9 73.7L659.9 73.7Q663.1 73.7 664.9 64.0Q666.7 54.3 667.6 33.5L667.6 33.5Q673.3 39.3 681.4 44.8Q689.5 50.4 696.6 52.9L696.6 52.9Q694.3 75.8 689.5 87.7Q684.8 99.7 676.9 104.2Q669.0 108.6 656.9 108.6L656.9 108.6Q643.9 108.6 634.2 99.8Q624.5 91.1 617.4 75.5Q610.4 60.0 605.7 39.3Q601.0 18.5 598.3-5.7L598.3-5.7Q596.4-21.9 595.3-39.0L595.3-39.0L483.5-39.0L483.5-71.4L593.7-71.4Q593.2-89.5 593.2-107.3L593.2-107.3L629.1-107.3Q628.4-89.5 628.8-71.4L628.8-71.4L658.1-71.4Q656.9-72.6 655.8-73.7L655.8-73.7Q651.2-78.3 646.0-82.8Q640.7-87.4 635.7-91.1ZM492.4 14.6L492.4-17.3L590.0-17.3L590.0 14.6L556.5 14.6L556.5 58.0Q576.4 54.8 595.7 51.6L595.7 51.6L598.0 81.0Q579.8 84.9 561.1 88.5L561.1 88.5L524.5 95.9Q506.7 99.5 491.7 102.5L491.7 102.5L482.8 68.9Q496.7 67.1 515.4 64.4L515.4 64.4Q519.3 63.7 523.4 63.2L523.4 63.2L523.4 14.6L492.4 14.6Z M760.3-105.2L760.3-105.2L794.5-102.0Q793.1-92.7 791.3-82.6L791.3-82.6L909.5-82.6L909.5-50.9L785.8-50.9Q785.4-47.9 784.9-45.2L784.9-45.2Q782.9-34.9 781.0-25.6L781.0-25.6L916.8-25.6L916.8-23.0Q916.6-20.3 916.4-17.0Q916.1-13.7 915.7-11.4L915.7-11.4Q913.2 20.8 910.0 41.6Q906.8 62.5 902.8 74.6Q898.8 86.7 893.3 92.4L893.3 92.4Q886.9 99.3 879.9 101.8Q872.8 104.3 862.7 105.2L862.7 105.2Q855.0 106.1 843.2 106.0Q831.5 105.9 818.9 105.7L818.9 105.7Q818.5 98.4 814.8 88.9Q811.2 79.4 805.9 72.3L805.9 72.3Q819.6 73.5 832.5 73.7Q845.4 73.9 851.6 73.9L851.6 73.9Q855.7 73.9 858.6 73.5Q861.6 73.0 864.3 71.0L864.3 71.0Q868.7 67.8 872.0 56.7Q875.3 45.6 878.0 26.2L878.0 26.2Q879.2 16.7 880.3 5.0L880.3 5.0L768.7 5.0L768.7 5.0L739.5 4.8Q742.2-5.9 745.1-19.3Q748.0-32.6 750.8-47.4Q753.7-62.1 756.1-76.9Q758.5-91.7 760.3-105.2ZM715.3 56.1L715.3 24.4L858.2 24.4L858.2 56.1L715.3 56.1Z M1059.9 75.1L1059.9 75.1L1073.6 60.2L1009.2 60.2L1029.3 74.9Q1020.4 81.2 1008.6 87.6Q996.7 94.0 984.0 99.5Q971.4 105.0 960.0 108.9L960.0 108.9Q955.6 103.6 948.5 96.6Q941.5 89.7 935.5 84.9L935.5 84.9Q947.2 81.5 959.5 76.2Q971.8 71.0 982.8 65.0L982.8 65.0Q987.1 62.5 991.0 60.2L991.0 60.2L939.9 60.2L939.9 30.6L975.5 30.6L975.5-97.9L1115.1-97.9L1115.1 30.6L1150.5 30.6L1150.5 60.2L1101.4 60.2Q1104.6 61.6 1107.8 63.0L1107.8 63.0Q1121.3 68.9 1133.4 74.5Q1145.5 80.1 1153.9 84.7L1153.9 84.7L1126.6 109.1Q1119.0 104.3 1108.2 98.2Q1097.3 92.2 1084.8 86.2Q1072.2 80.1 1059.9 75.1ZM1007.4 21.7L1007.4 30.6L1081.6 30.6L1081.6 21.7L1007.4 21.7ZM1007.4-1.4L1081.6-1.4L1081.6-9.6L1007.4-9.6L1007.4-1.4ZM1007.4-63.7L1081.6-63.7L1081.6-71.9L1007.4-71.9L1007.4-63.7ZM1007.4-32.6L1081.6-32.6L1081.6-40.6L1007.4-40.6L1007.4-32.6Z M1354.1-40.4L1354.1-40.4L1382.8-27.2Q1366.2 0.2 1344.0 22.6L1344.0 22.6L1344.0 70.7Q1344.0 83.3 1341.2 90.6Q1338.3 97.9 1330.3 101.8L1330.3 101.8Q1322.6 105.7 1311.4 106.7Q1300.2 107.7 1284.5 107.7L1284.5 107.7Q1284.0 103.2 1282.3 97.1Q1280.6 91.1 1278.3 85.1L1278.3 85.1Q1276.0 79.4 1274.0 75.3L1274.0 75.3Q1271.0 76.9 1268.0 78.5L1268.0 78.5Q1232.4 97.7 1192.7 110.0L1192.7 110.0Q1190.7 106.3 1187.0 101.3Q1183.4 96.3 1179.5 91.4Q1175.6 86.5 1172.6 83.3L1172.6 83.3Q1212.6 72.8 1247.3 55.7L1247.3 55.7Q1257.1 50.9 1266.2 45.4L1266.2 45.4L1177.7 45.4L1177.7 16.7L1206.2 16.7L1206.2-87.0L1254.1-87.0Q1254.6-88.3 1255.0-89.7L1255.0-89.7Q1258.4-100.2 1260.0-108.9L1260.0-108.9L1299.1-105.2Q1294.5-95.9 1289.5-87.0L1289.5-87.0L1344.0-87.0L1344.0-24.6Q1349.3-32.2 1354.1-40.4ZM1311.8 11.9L1311.8 11.9L1311.8 6.4L1239.0 6.4L1239.0 16.7L1306.6 16.7Q1307.7 15.7 1308.9 14.6L1308.9 14.6Q1310.5 13.2 1311.8 11.9ZM1239.0-16.9L1311.8-16.9L1311.8-26.5L1239.0-26.5L1239.0-16.9ZM1239.0-49.8L1311.8-49.8L1311.8-58.7L1239.0-58.7L1239.0-49.8ZM1311.8 70.3L1311.8 50.4Q1294.0 63.9 1274.2 75.1L1274.2 75.1Q1280.1 75.3 1286.5 75.5L1286.5 75.5Q1293.1 75.8 1298.6 75.8L1298.6 75.8L1305.9 75.8Q1309.1 75.5 1310.5 74.4Q1311.8 73.3 1311.8 70.3L1311.8 70.3Z M1404.5-29.9L1404.5-55.5L1420.5-55.5Q1420.0-55.7 1419.8-55.9L1419.8-55.9Q1415.0-58.9 1410.1-61.6Q1405.2-64.4 1401.5-66.0L1401.5-66.0Q1410.4-73.9 1416.8-85.7Q1423.2-97.4 1426.2-110L1426.2-110L1455.4-104.1Q1453.8-97.9 1451.7-92.0L1451.7-92.0L1505.1-92.0L1505.1-66.6L1477.7-66.6L1477.7-58.2Q1477.7-56.8 1477.7-55.5L1477.7-55.5L1510.4-55.5L1510.4-29.9L1480.7-29.9Q1481.6-29.4 1482.3-29.2L1482.3-29.2Q1487.8-26.2 1493.8-22.9Q1499.9-19.6 1505.1-16.8Q1510.4-13.9 1512.7-12.3L1512.7-12.3L1488.9 8.2Q1485.5 5.2 1480.6 1.5Q1475.7-2.3 1470.4-6.4L1470.4-6.4Q1466.6-9.4 1462.7-12.3L1462.7-12.3Q1457.7-5.5 1450.4 0.9L1450.4 0.9Q1444.9 5.7 1438.0 10.0L1438.0 10.0L1588.7 10.0L1588.7 108.4L1554.4 108.4L1554.4 101.3L1466.6 101.3L1466.6 108.4L1433.9 108.4L1433.9 12.6Q1428.7 15.5 1422.5 18.5L1422.5 18.5Q1419.3 13.5 1413.2 7.0Q1407.0 0.5 1401.5-3.4L1401.5-3.4Q1417.0-9.4 1426.2-16.4L1426.2-16.4Q1434.6-22.8 1439.0-29.9L1439.0-29.9L1404.5-29.9ZM1517.0-1.1L1517.0-92.4L1608.3-92.4L1608.3-1.1L1517.0-1.1ZM1575.4-63.4L1547.8-63.4L1547.8-30.4L1575.4-30.4L1575.4-63.4ZM1466.6 75.3L1554.4 75.3L1554.4 67.1L1466.6 67.1L1466.6 75.3ZM1466.6 43.6L1554.4 43.6L1554.4 35.8L1466.6 35.8L1466.6 43.6ZM1431.4-55.5L1446.5-55.5Q1446.5-57.1 1446.5-58.7L1446.5-58.7L1446.5-66.6L1439.4-66.6Q1435.5-60.5 1431.4-55.5L1431.4-55.5Z M1637.0 108.4L1637.0-25.1L1726.5-25.1L1726.5 76.5Q1726.5 86.5 1724.2 92.8Q1721.9 99.0 1715.3 102.7L1715.3 102.7Q1708.9 106.3 1700.7 107.3Q1692.5 108.2 1682.4 108.2L1682.4 108.2Q1681.3 101.6 1678.2 93.1Q1675.1 84.7 1671.9 79.0L1671.9 79.0Q1677.0 79.2 1682.4 79.3Q1687.9 79.4 1690.0 79.2L1690.0 79.2Q1692.0 79.2 1692.8 78.5Q1693.6 77.8 1693.6 75.8L1693.6 75.8L1693.6 66.9L1667.6 66.9L1667.6 108.4L1637.0 108.4ZM1742.5 69.1L1742.5 0L1775.3 0L1775.3 27.2Q1784.9 22.8 1793.8 18.0L1793.8 18.0Q1803.6 12.8 1811.2 7.8L1811.2 7.8L1832.8 32.0Q1822.1 37.7 1809.9 42.7Q1797.7 47.7 1785.4 52.0L1785.4 52.0Q1780.3 53.9 1775.3 55.5L1775.3 55.5L1775.3 68.9Q1775.3 75.3 1777.0 76.9Q1778.8 78.5 1784.5 78.5L1784.5 78.5L1803.9 78.5Q1807.5 78.5 1809.3 76.6Q1811.2 74.6 1812.1 69.0Q1813.0 63.4 1813.4 52.5L1813.4 52.5Q1818.7 56.1 1827.2 59.6Q1835.8 63.0 1842.4 64.6L1842.4 64.6Q1840.8 81.0 1836.9 90.4Q1833.1 99.7 1826.0 103.5Q1818.9 107.3 1807.0 107.3L1807.0 107.3L1779.2 107.3Q1764.6 107.3 1756.6 103.7Q1748.6 100.2 1745.5 91.9Q1742.5 83.5 1742.5 69.1L1742.5 69.1ZM1742.2-42.0L1742.2-107.0L1774.9-107.0L1774.9-77.6Q1784.5-81.7 1793.4-86.0L1793.4-86.0Q1802.7-90.8 1810.0-95.4L1810.0-95.4L1830.8-71.4Q1820.3-66.4 1808.5-61.8Q1796.8-57.3 1784.9-53.6L1784.9-53.6Q1779.9-51.8 1774.9-50.4L1774.9-50.4L1774.9-42.4Q1774.9-36.1 1776.4-34.6Q1777.8-33.1 1783.5-33.1L1783.5-33.1L1802.3-33.1Q1805.7-33.1 1807.4-34.7Q1809.1-36.3 1810.0-41.0Q1810.9-45.6 1811.4-55L1811.4-55Q1816.2-51.3 1824.9-47.9Q1833.5-44.5 1840.1-43.1L1840.1-43.1Q1838.5-27.8 1834.7-19.4Q1830.8-11.0 1823.8-7.5Q1816.9-4.1 1805.7-4.1L1805.7-4.1L1778.5-4.1Q1763.9-4.1 1756.0-7.6Q1748.2-11.2 1745.2-19.5Q1742.2-27.8 1742.2-42.0L1742.2-42.0ZM1686.3-83.5L1686.3-83.5L1714.6-94.0Q1719.6-86.3 1724.5-77.1Q1729.5-68.0 1733.3-59.2Q1737.2-50.4 1738.8-43.1L1738.8-43.1L1708.5-31.3Q1707.5-36.5 1705.3-42.7L1705.3-42.7Q1694.1-41.5 1685.6-40.6L1685.6-40.6Q1672.9-39.3 1664.5-38.2Q1656.2-37.2 1651.2-36.4Q1646.2-35.6 1643.2-34.8Q1640.2-34.0 1638.2-33.1L1638.2-33.1Q1637.3-36.5 1635.3-42.1Q1633.4-47.7 1631.2-53.6Q1629.0-59.6 1627.0-63.9L1627.0-63.9Q1630.0-64.8 1632.8-67.1Q1635.7-69.4 1638.4-73.0L1638.4-73.0Q1640.2-75.3 1643.5-80.7Q1646.8-86.0 1650.7-93.5Q1654.6-100.9 1657.3-108.9L1657.3-108.9L1692.9-100.0Q1688.4-91.1 1682.2-81.7L1682.2-81.7Q1676.5-73.0 1670.3-65.3L1670.3-65.3L1695.0-67.1Q1690.9-75.8 1686.3-83.5ZM1693.6 33.8L1667.6 33.8L1667.6 42.7L1693.6 42.7L1693.6 33.8ZM1693.6 9.6L1693.6 1.8L1667.6 1.8L1667.6 9.6L1693.6 9.6Z"/><path id="ink" d="M1883.5-14.6L1883.5-97.2L2066.1-97.2L2066.1 73.5Q2066.1 85.6 2063.2 92.3Q2060.4 99.0 2053.1 102.9L2053.1 102.9Q2045.7 106.6 2035.4 107.5Q2025.0 108.4 2010.4 108.4L2010.4 108.4Q2009.5 101.8 2006.5 92.7L2006.5 92.7Q2004.7 87.0 2002.6 82.4L2002.6 82.4L1959.3 82.4L1959.3 94.7L1929.4 94.7L1929.4 18.7L2017.7 18.7L2017.7 78.3Q2019.5 78.3 2021.1 78.3L2021.1 78.3L2027.5 78.3Q2030.5 78.3 2031.6 77.1Q2032.7 76.0 2032.7 73.3L2032.7 73.3L2032.7-66.6L1916.4-66.6L1916.4-14.6Q1916.4-0.7 1915.3 16.0Q1914.3 32.6 1911.3 49.5Q1908.4 66.4 1902.8 81.9Q1897.2 97.4 1888.1 109.5L1888.1 109.5Q1885.3 106.3 1880.3 102.2Q1875.3 98.1 1870.0 94.3Q1864.8 90.4 1861.1 88.5L1861.1 88.5Q1868.9 78.0 1873.4 65.3Q1878.0 52.5 1880.2 38.7Q1882.3 24.9 1882.9 11.2Q1883.5-2.5 1883.5-14.6L1883.5-14.6ZM1927.1-26.5L1927.1-51.3L1957.4-51.3L1957.4-63.9L1988.7-63.9L1988.7-51.3L2020.6-51.3L2020.6-26.5L1988.7-26.5L1988.7-16.7L2024.5-16.7L2024.5 9.1L1922.7 9.1L1922.7-16.7L1957.4-16.7L1957.4-26.5L1927.1-26.5ZM1959.3 43.4L1959.3 57.7L1987.1 57.7L1987.1 43.4L1959.3 43.4Z M2172.2 107.5L2172.2-100.0L2293.1-100.0L2293.1-95.6Q2292.9-91.1 2292.7-88.1L2292.7-88.1Q2292.0-63.9 2289.9-51.7Q2287.9-39.5 2283.5-34.5Q2279.2-29.4 2273.2-27.6Q2267.1-25.8 2260.5-25.1L2260.5-25.1Q2254.3-24.6 2245.0-24.6Q2235.6-24.6 2225.3-24.9L2225.3-24.9Q2225.1-30.8 2222.7-38.6Q2220.3-46.3 2217.1-51.6L2217.1-51.6Q2223.3-51.1 2228.8-50.9Q2234.2-50.7 2238.7-50.5Q2243.1-50.4 2245.7-50.4L2245.7-50.4Q2248.8-50.4 2250.9-50.8Q2253.0-51.1 2254.6-52.7Q2256.2-54.3 2257.1-59.3L2257.1-59.3Q2257.5-63.0 2258.0-69.4L2258.0-69.4L2205.0-69.4L2205.0-19.4L2270.5-19.4L2276.2-20.3L2297.5-14.1Q2293.6 15.5 2284.0 39.0L2284.0 39.0Q2279.0 51.3 2272.4 61.8L2272.4 61.8Q2286.5 73.3 2304.3 80.3L2304.3 80.3Q2300.7 83.5 2296.3 88.5Q2292.0 93.6 2288.1 98.9Q2284.2 104.3 2281.7 108.6L2281.7 108.6Q2264.1 100.4 2250.7 88.3L2250.7 88.3Q2237.2 100.9 2219.2 109.8L2219.2 109.8Q2215.5 103.6 2209.1 96.3L2209.1 96.3Q2207.1 94.0 2205.0 91.7L2205.0 91.7L2205.0 107.5L2172.2 107.5ZM2091.6 39.0L2084.8 5.0Q2095.5 3.0 2109.0 0L2109.0 0Q2111.7-0.5 2114.4-1.1L2114.4-1.1L2114.4-34.0L2087.7-34.0L2087.7-66.2L2114.4-66.2L2114.4-108.2L2148.4-108.2L2148.4-66.2L2168.1-66.2L2168.1-34.0L2148.4-34.0L2148.4-8.7Q2157.6-10.7 2166.5-12.8L2166.5-12.8L2170.6 19.6Q2159.6 22.4 2148.4 25.1L2148.4 25.1L2148.4 72.6Q2148.4 84.7 2145.8 91.5Q2143.2 98.4 2136.1 102.2Q2129.0 106.1 2118.9 107.3Q2108.7 108.4 2095.0 108.2L2095.0 108.2Q2094.1 101.6 2091.3 92.4Q2088.4 83.3 2085.2 76.7L2085.2 76.7Q2092.3 76.9 2099.6 77.0Q2106.9 77.1 2109.4 77.1L2109.4 77.1Q2112.4 77.1 2113.4 76.1Q2114.4 75.1 2114.4 72.3L2114.4 72.3L2114.4 33.5Q2102.3 36.5 2091.6 39.0L2091.6 39.0ZM2229.4 63.7L2229.4 63.7Q2224.4 56.6 2220.3 48.8L2220.3 48.8Q2211.6 33.3 2205.0 15.1L2205.0 15.1L2205.0 80.6Q2215.8 75.1 2224.4 68.0L2224.4 68.0Q2226.9 66.0 2229.4 63.7ZM2260.3 10.0L2234.9 10.0Q2239.9 21.9 2246.8 32.6L2246.8 32.6Q2248.2 35.1 2249.8 37.4L2249.8 37.4Q2254.3 28.8 2257.7 18.7L2257.7 18.7Q2259.1 14.6 2260.3 10.0L2260.3 10.0Z"/></svg>
